<svg xmlns="http://www.w3.org/2000/svg" xmlns:xlink="http://www.w3.org/1999/xlink" id="Layer_1" x="0" y="0" version="1.1" viewBox="0 0 76.1 64.3" xml:space="preserve" style="enable-background:new 0 0 76.1 64.3"><style type="text/css">.st0{fill:#ebebeb}</style><path id="C" d="M53.8,9.7C47.7,2.7,40.6,0,32.3,0C13.5,0,0,12.8,0,32.4c0,19.1,13.5,31.9,32.3,31.9	c9,0,17.3-3.3,22.8-10.9l-9-6.4c-4.1,5.2-8.8,7.4-13.7,7.4c-12.6,0-21-9.7-21-22.7c0-12.2,8.4-21.9,21-21.9c4.2,0,8.4,1.3,12.9,6.1	L53.8,9.7z" class="st0"/><path d="M67.4,23.6h8.7v19H57.2L67.4,23.6z M57.2,42.6l-10.6-19h10.6V42.6z" class="st0"/></svg>